<?xml version="1.0" encoding="utf-8"?>
<!-- Generator: Adobe Illustrator 19.2.1, SVG Export Plug-In . SVG Version: 6.00 Build 0)  -->
<svg version="1.1" id="Layer_1" xmlns="http://www.w3.org/2000/svg" xmlns:xlink="http://www.w3.org/1999/xlink" x="0px" y="0px"
	 viewBox="0 0 845.8 296" style="enable-background:new 0 0 845.8 296;" xml:space="preserve">
<style type="text/css">
	.st0{fill:#DB0626;}
</style>
<g>
	<path d="M773.9,172.1c-12.9-12.2-29.4-18.3-49.4-18.3c-20,0-36.5,6.1-49.4,18.2c-3.2,3-5.9,6.1-8.3,9.5v-124h-38.2v82h-0.5
		c-8-10.9-21-16.3-39.2-16.3c-16.5,0-30,6.3-40.6,19c-3.4,4.1-6.2,8.4-8.5,13.1H510V218c0,10.4-1.8,18-5.3,23
		c-3.6,5-9.4,7.5-17.6,7.5c-4.9,0-8.8-1.1-11.7-3.4c-2.9-2.3-5-5.3-6.2-9c-1.3-3.7-1.9-10.2-1.9-19.4v-61.4h-36.9l-13.7-18.5
		l49.1-55.8h-46.9L376.7,130V12.3h-38.2V132c-6.8-1.9-13.5-2.9-20.1-2.9c-20,0-36.5,6.1-49.4,18.2c-8.6,8.1-14.2,17.7-17.1,28.8
		c-1.2-1.4-2.5-2.7-3.8-4c-12.9-12.2-29.4-18.3-49.4-18.3c-20,0-36.5,6.1-49.4,18.2c-7,6.6-12.1,14.3-15.3,22.9l-21.8-36.3
		c12.2-2.4,21.8-7.9,28.6-16.5c6.9-8.7,10.3-19.6,10.3-32.8c0-17.7-5.6-31.2-16.8-40.6c-11.2-9.4-27.8-14.1-49.9-14.1h-71v180.3H53
		v-72.1h19.6l37.7,72.1h21.3c2.7,12,8.6,22.3,17.7,30.8c13,12.1,29.4,18.1,49.3,18.1c19.5,0,35.9-6,49-18.1
		c8.8-8.1,14.6-17.7,17.5-29c1.2,1.4,2.5,2.7,3.8,4c12.9,12.2,29.4,18.3,49.4,18.3c18.7,0,33.4-5.5,44.1-16.6l-25.2-26.5
		c-5.1,6.3-11.4,9.4-18.8,9.4c-9.2,0-16.6-2.8-22.2-8.4c-5.6-5.6-8.4-13.2-8.4-22.9c0-9.3,2.7-16.9,8.1-22.7
		c5.4-5.8,12.9-8.7,22.4-8.7c7.8,0,14.1,3.1,18.8,9.4l1.3-1.4v34.1h38.2v-62.6h0.5l41.8,62.6h10.1v20.2c0,19.9,3.5,34.3,10.6,43.4
		c7,9.1,18.7,13.6,35,13.6c8.1,0,15.4-1.7,21.8-5.2c6.4-3.5,11.2-8.4,14.6-14.6h0.5v16.8h36.7v-44.8c0.3,0.4,0.6,0.8,1,1.1
		c11.2,11.8,25.8,17.7,43.8,17.7c7.3,0,14.4-1.7,21.4-5.2c7-3.5,12.6-8.2,16.8-14.1h0.5V250h31.5c3.1,5.7,7.1,10.9,12.1,15.5
		c13,12.1,29.4,18.1,49.3,18.1c19.5,0,35.9-6,49-18.1c13.2-12.1,19.7-27.7,19.7-46.9C793.3,199.9,786.8,184.3,773.9,172.1z
		 M102.5,124.4c-4.8,3.1-13.1,4.7-24.8,4.7H53v-41h27c19.9,0,29.8,7,29.8,20.9C109.8,116.1,107.4,121.2,102.5,124.4z M220.9,241.6
		c-5.5,5.6-12.9,8.4-22.3,8.4c-9.5,0-17-2.9-22.4-8.7c-5.4-5.8-8.1-13.3-8.1-22.7c0-9.2,2.7-16.7,8.1-22.5
		c5.4-5.9,12.8-8.8,22.2-8.8c9.5,0,17,2.8,22.5,8.4c5.5,5.6,8.3,13.2,8.3,22.9C229.1,228.4,226.4,236,220.9,241.6z M623.4,211.1
		c-5.5,5.6-12.9,8.4-22.3,8.4c-9.5,0-17-2.9-22.4-8.7c-5.4-5.8-8.1-13.3-8.1-22.7c0-9.7,2.7-17.3,8.1-22.9
		c5.4-5.6,12.8-8.4,22.2-8.4c9.2,0,16.6,2.7,22.3,8c5.7,5.3,8.5,13.1,8.5,23.3C631.7,197.8,629,205.5,623.4,211.1z M746.8,241.6
		c-5.5,5.6-12.9,8.4-22.3,8.4c-9.5,0-17-2.9-22.4-8.7c-5.4-5.8-8.1-13.3-8.1-22.7c0-9.2,2.7-16.7,8.1-22.5
		c5.4-5.9,12.8-8.8,22.2-8.8c9.5,0,17,2.8,22.5,8.4c5.5,5.6,8.3,13.2,8.3,22.9C755.1,228.4,752.3,236,746.8,241.6z"/>
	<g>
		<path class="st0" d="M744.4,81c-1.4,0-2.5,0.4-3.4,1.3c-0.9,0.8-1.4,2.1-1.4,3.7c0,1.5,0.4,2.7,1.3,3.6c0.9,0.9,2,1.4,3.6,1.4
			c1.5,0,2.7-0.4,3.5-1.3c0.9-0.9,1.3-2.1,1.3-3.6c0-1.5-0.4-2.7-1.3-3.6C747.1,81.5,745.9,81,744.4,81z"/>
		<path class="st0" d="M766.2,80c-1.1,0-2.1,0.3-2.9,1c-0.8,0.7-1.2,1.6-1.4,2.7h8c0-1.1-0.4-2-1.1-2.7
			C768.1,80.4,767.2,80,766.2,80z"/>
		<path class="st0" d="M798.1,87.9c-1,0.5-1.5,1.2-1.5,2.1c0,0.6,0.3,1.2,0.8,1.6c0.6,0.4,1.2,0.6,2.1,0.6c1.3,0,2.4-0.3,3.3-1
			c0.8-0.7,1.3-1.6,1.3-2.7v-1.3h-1.8C800.5,87.2,799.1,87.4,798.1,87.9z"/>
		<path class="st0" d="M819.2,54.9h-95.8c-7.3,0-13.3,6-13.3,13.3v27.5c0,7.3,6,13.3,13.3,13.3h95.8c7.3,0,13.3-6,13.3-13.3V68.2
			C832.5,60.9,826.6,54.9,819.2,54.9z M752.7,93.4c-1.8,1.9-4.1,2.8-7,2.8c-1.2,0-2.3-0.3-3.4-0.8c-1.1-0.6-2-1.3-2.6-2.2h-0.1v2.6
			H734V65.3h6.1v13h0.1c1.2-1.7,3.3-2.6,6.2-2.6c2.6,0,4.8,1,6.4,3c1.7,2,2.5,4.5,2.5,7.4C755.3,89.1,754.5,91.5,752.7,93.4z
			 M776,87.9h-14c0.2,1.1,0.8,2,1.5,2.7c0.8,0.7,1.8,1,3,1c1.7,0,3.1-0.8,4.3-2.4l4.2,3.1c-1,1.2-2.2,2.2-3.7,2.9
			c-1.5,0.7-3,1-4.5,1c-3.1,0-5.7-1-7.8-2.9c-2.1-1.9-3.1-4.4-3.1-7.4c0-3,1-5.5,3.1-7.4c2-1.9,4.7-2.9,8-2.9c2.7,0,4.9,0.9,6.6,2.8
			c1.6,1.9,2.5,4.4,2.5,7.6V87.9z M790.8,81h-5.3v6.9c0,1.2,0.2,2.1,0.7,2.5c0.4,0.5,1.2,0.7,2.2,0.7c1.3,0,2.1-0.2,2.5-0.6v5
			c-1.2,0.4-2.6,0.6-4.2,0.6c-2.4,0-4.1-0.5-5.3-1.6c-1.2-1-1.8-2.4-1.8-4.2V81h-3.9v-4.8h3.9v-5.8h6.1v5.8h5.3V81z M809.7,95.8
			h-5.6v-2.5H804c-1.3,2-3.3,2.9-6.2,2.9c-2,0-3.7-0.6-5-1.7c-1.3-1.1-2-2.6-2-4.4c0-1.6,0.4-2.9,1.3-3.9c0.9-1,2.2-1.8,4-2.3
			c1.8-0.5,4.4-0.7,7.9-0.7c0-1-0.4-1.9-1.2-2.5c-0.8-0.6-1.7-1-2.7-1c-1.9,0-3.5,0.8-4.9,2.3l-3.2-3.3c1.1-1.1,2.5-1.9,4-2.4
			c1.5-0.5,3.1-0.7,4.6-0.7c3.1,0,5.4,0.8,6.8,2.3c1.4,1.5,2.1,4,2.1,7.6V95.8z"/>
	</g>
</g>
</svg>
